<mxfile host="app.diagrams.net" modified="2023-04-09T10:22:57.209Z" agent="Mozilla/5.0 (Windows NT 10.0; Win64; x64) AppleWebKit/537.36 (KHTML, like Gecko) Chrome/111.0.0.0 Safari/537.36" etag="3WnezWluxgfa2tITNXmn" version="21.1.5" type="device">
  <diagram id="C5RBs43oDa-KdzZeNtuy" name="Page-1">
    <mxGraphModel dx="1434" dy="774" grid="1" gridSize="10" guides="1" tooltips="1" connect="1" arrows="1" fold="1" page="1" pageScale="1" pageWidth="827" pageHeight="1169" math="0" shadow="0">
      <root>
        <mxCell id="WIyWlLk6GJQsqaUBKTNV-0" />
        <mxCell id="WIyWlLk6GJQsqaUBKTNV-1" parent="WIyWlLk6GJQsqaUBKTNV-0" />
        <mxCell id="Jf-K_vuhxzvKwSq_fTRj-3" value="" style="edgeStyle=orthogonalEdgeStyle;rounded=0;orthogonalLoop=1;jettySize=auto;html=1;labelBackgroundColor=none;strokeColor=#E07A5F;fontColor=default;" edge="1" parent="WIyWlLk6GJQsqaUBKTNV-1" source="WIyWlLk6GJQsqaUBKTNV-3" target="Jf-K_vuhxzvKwSq_fTRj-2">
          <mxGeometry relative="1" as="geometry" />
        </mxCell>
        <mxCell id="WIyWlLk6GJQsqaUBKTNV-3" value="Написання роману" style="rounded=1;whiteSpace=wrap;html=1;fontSize=12;glass=0;strokeWidth=1;shadow=0;labelBackgroundColor=none;fillColor=#F2CC8F;strokeColor=#E07A5F;fontColor=#393C56;" parent="WIyWlLk6GJQsqaUBKTNV-1" vertex="1">
          <mxGeometry x="354" y="20" width="120" height="40" as="geometry" />
        </mxCell>
        <mxCell id="Jf-K_vuhxzvKwSq_fTRj-5" value="Фізично" style="edgeStyle=orthogonalEdgeStyle;rounded=0;orthogonalLoop=1;jettySize=auto;html=1;labelBackgroundColor=none;strokeColor=#E07A5F;fontColor=default;" edge="1" parent="WIyWlLk6GJQsqaUBKTNV-1" source="Jf-K_vuhxzvKwSq_fTRj-2" target="Jf-K_vuhxzvKwSq_fTRj-4">
          <mxGeometry x="-0.0959" y="25" relative="1" as="geometry">
            <mxPoint as="offset" />
          </mxGeometry>
        </mxCell>
        <mxCell id="Jf-K_vuhxzvKwSq_fTRj-7" value="Електронно" style="edgeStyle=orthogonalEdgeStyle;rounded=0;orthogonalLoop=1;jettySize=auto;html=1;labelBackgroundColor=none;strokeColor=#E07A5F;fontColor=default;" edge="1" parent="WIyWlLk6GJQsqaUBKTNV-1" source="Jf-K_vuhxzvKwSq_fTRj-2" target="Jf-K_vuhxzvKwSq_fTRj-6">
          <mxGeometry x="-0.1507" y="-25" relative="1" as="geometry">
            <mxPoint as="offset" />
          </mxGeometry>
        </mxCell>
        <mxCell id="Jf-K_vuhxzvKwSq_fTRj-2" value="Обрати спосіб написання&amp;nbsp;" style="rhombus;whiteSpace=wrap;html=1;rounded=1;glass=0;strokeWidth=1;shadow=0;labelBackgroundColor=none;fillColor=#F2CC8F;strokeColor=#E07A5F;fontColor=#393C56;" vertex="1" parent="WIyWlLk6GJQsqaUBKTNV-1">
          <mxGeometry x="361" y="100" width="106" height="110" as="geometry" />
        </mxCell>
        <mxCell id="Jf-K_vuhxzvKwSq_fTRj-11" value="" style="edgeStyle=orthogonalEdgeStyle;rounded=0;orthogonalLoop=1;jettySize=auto;html=1;labelBackgroundColor=none;strokeColor=#E07A5F;fontColor=default;" edge="1" parent="WIyWlLk6GJQsqaUBKTNV-1" source="Jf-K_vuhxzvKwSq_fTRj-4" target="Jf-K_vuhxzvKwSq_fTRj-10">
          <mxGeometry relative="1" as="geometry" />
        </mxCell>
        <mxCell id="Jf-K_vuhxzvKwSq_fTRj-4" value="Написання на папері" style="whiteSpace=wrap;html=1;rounded=1;glass=0;strokeWidth=1;shadow=0;labelBackgroundColor=none;fillColor=#F2CC8F;strokeColor=#E07A5F;fontColor=#393C56;" vertex="1" parent="WIyWlLk6GJQsqaUBKTNV-1">
          <mxGeometry x="540" y="125" width="120" height="60" as="geometry" />
        </mxCell>
        <mxCell id="Jf-K_vuhxzvKwSq_fTRj-9" value="" style="edgeStyle=orthogonalEdgeStyle;rounded=0;orthogonalLoop=1;jettySize=auto;html=1;labelBackgroundColor=none;strokeColor=#E07A5F;fontColor=default;" edge="1" parent="WIyWlLk6GJQsqaUBKTNV-1" source="Jf-K_vuhxzvKwSq_fTRj-6" target="Jf-K_vuhxzvKwSq_fTRj-8">
          <mxGeometry relative="1" as="geometry" />
        </mxCell>
        <mxCell id="Jf-K_vuhxzvKwSq_fTRj-6" value="Написання на ПК" style="whiteSpace=wrap;html=1;rounded=1;glass=0;strokeWidth=1;shadow=0;labelBackgroundColor=none;fillColor=#F2CC8F;strokeColor=#E07A5F;fontColor=#393C56;" vertex="1" parent="WIyWlLk6GJQsqaUBKTNV-1">
          <mxGeometry x="168" y="125" width="120" height="60" as="geometry" />
        </mxCell>
        <mxCell id="Jf-K_vuhxzvKwSq_fTRj-13" value="" style="edgeStyle=orthogonalEdgeStyle;rounded=0;orthogonalLoop=1;jettySize=auto;html=1;labelBackgroundColor=none;strokeColor=#E07A5F;fontColor=default;" edge="1" parent="WIyWlLk6GJQsqaUBKTNV-1" source="Jf-K_vuhxzvKwSq_fTRj-8" target="Jf-K_vuhxzvKwSq_fTRj-12">
          <mxGeometry relative="1" as="geometry" />
        </mxCell>
        <mxCell id="Jf-K_vuhxzvKwSq_fTRj-8" value="Відкрити Word" style="whiteSpace=wrap;html=1;rounded=1;glass=0;strokeWidth=1;shadow=0;labelBackgroundColor=none;fillColor=#F2CC8F;strokeColor=#E07A5F;fontColor=#393C56;" vertex="1" parent="WIyWlLk6GJQsqaUBKTNV-1">
          <mxGeometry x="168" y="230" width="120" height="60" as="geometry" />
        </mxCell>
        <mxCell id="Jf-K_vuhxzvKwSq_fTRj-17" value="" style="edgeStyle=orthogonalEdgeStyle;rounded=0;orthogonalLoop=1;jettySize=auto;html=1;labelBackgroundColor=none;strokeColor=#E07A5F;fontColor=default;" edge="1" parent="WIyWlLk6GJQsqaUBKTNV-1" source="Jf-K_vuhxzvKwSq_fTRj-10" target="Jf-K_vuhxzvKwSq_fTRj-16">
          <mxGeometry relative="1" as="geometry" />
        </mxCell>
        <mxCell id="Jf-K_vuhxzvKwSq_fTRj-10" value="Взяти папер" style="whiteSpace=wrap;html=1;rounded=1;glass=0;strokeWidth=1;shadow=0;labelBackgroundColor=none;fillColor=#F2CC8F;strokeColor=#E07A5F;fontColor=#393C56;" vertex="1" parent="WIyWlLk6GJQsqaUBKTNV-1">
          <mxGeometry x="540" y="230" width="120" height="60" as="geometry" />
        </mxCell>
        <mxCell id="Jf-K_vuhxzvKwSq_fTRj-12" value="Почати писати" style="whiteSpace=wrap;html=1;rounded=1;glass=0;strokeWidth=1;shadow=0;labelBackgroundColor=none;fillColor=#F2CC8F;strokeColor=#E07A5F;fontColor=#393C56;" vertex="1" parent="WIyWlLk6GJQsqaUBKTNV-1">
          <mxGeometry x="168" y="342.5" width="120" height="60" as="geometry" />
        </mxCell>
        <mxCell id="Jf-K_vuhxzvKwSq_fTRj-19" value="Олівець" style="edgeStyle=orthogonalEdgeStyle;rounded=0;orthogonalLoop=1;jettySize=auto;html=1;labelBackgroundColor=none;strokeColor=#E07A5F;fontColor=default;" edge="1" parent="WIyWlLk6GJQsqaUBKTNV-1" source="Jf-K_vuhxzvKwSq_fTRj-16" target="Jf-K_vuhxzvKwSq_fTRj-18">
          <mxGeometry x="0.0769" y="-22" relative="1" as="geometry">
            <mxPoint as="offset" />
          </mxGeometry>
        </mxCell>
        <mxCell id="Jf-K_vuhxzvKwSq_fTRj-21" value="Ручка" style="edgeStyle=orthogonalEdgeStyle;rounded=0;orthogonalLoop=1;jettySize=auto;html=1;labelBackgroundColor=none;strokeColor=#E07A5F;fontColor=default;" edge="1" parent="WIyWlLk6GJQsqaUBKTNV-1" source="Jf-K_vuhxzvKwSq_fTRj-16" target="Jf-K_vuhxzvKwSq_fTRj-20">
          <mxGeometry x="-0.2308" y="23" relative="1" as="geometry">
            <mxPoint y="1" as="offset" />
          </mxGeometry>
        </mxCell>
        <mxCell id="Jf-K_vuhxzvKwSq_fTRj-16" value="Обрати чим писати" style="rhombus;whiteSpace=wrap;html=1;rounded=1;glass=0;strokeWidth=1;shadow=0;labelBackgroundColor=none;fillColor=#F2CC8F;strokeColor=#E07A5F;fontColor=#393C56;" vertex="1" parent="WIyWlLk6GJQsqaUBKTNV-1">
          <mxGeometry x="555" y="325" width="90" height="95" as="geometry" />
        </mxCell>
        <mxCell id="Jf-K_vuhxzvKwSq_fTRj-23" value="" style="edgeStyle=orthogonalEdgeStyle;rounded=0;orthogonalLoop=1;jettySize=auto;html=1;labelBackgroundColor=none;strokeColor=#E07A5F;fontColor=default;" edge="1" parent="WIyWlLk6GJQsqaUBKTNV-1" source="Jf-K_vuhxzvKwSq_fTRj-18" target="Jf-K_vuhxzvKwSq_fTRj-22">
          <mxGeometry relative="1" as="geometry" />
        </mxCell>
        <mxCell id="Jf-K_vuhxzvKwSq_fTRj-18" value="Взяти олівець" style="whiteSpace=wrap;html=1;rounded=1;glass=0;strokeWidth=1;shadow=0;labelBackgroundColor=none;fillColor=#F2CC8F;strokeColor=#E07A5F;fontColor=#393C56;" vertex="1" parent="WIyWlLk6GJQsqaUBKTNV-1">
          <mxGeometry x="370" y="342.5" width="120" height="60" as="geometry" />
        </mxCell>
        <mxCell id="Jf-K_vuhxzvKwSq_fTRj-25" value="" style="edgeStyle=orthogonalEdgeStyle;rounded=0;orthogonalLoop=1;jettySize=auto;html=1;labelBackgroundColor=none;strokeColor=#E07A5F;fontColor=default;" edge="1" parent="WIyWlLk6GJQsqaUBKTNV-1" source="Jf-K_vuhxzvKwSq_fTRj-20" target="Jf-K_vuhxzvKwSq_fTRj-24">
          <mxGeometry relative="1" as="geometry" />
        </mxCell>
        <mxCell id="Jf-K_vuhxzvKwSq_fTRj-20" value="Взяти ручку" style="whiteSpace=wrap;html=1;rounded=1;glass=0;strokeWidth=1;shadow=0;labelBackgroundColor=none;fillColor=#F2CC8F;strokeColor=#E07A5F;fontColor=#393C56;" vertex="1" parent="WIyWlLk6GJQsqaUBKTNV-1">
          <mxGeometry x="700" y="342.5" width="120" height="60" as="geometry" />
        </mxCell>
        <mxCell id="Jf-K_vuhxzvKwSq_fTRj-22" value="Почати писати" style="whiteSpace=wrap;html=1;rounded=1;glass=0;strokeWidth=1;shadow=0;labelBackgroundColor=none;fillColor=#F2CC8F;strokeColor=#E07A5F;fontColor=#393C56;" vertex="1" parent="WIyWlLk6GJQsqaUBKTNV-1">
          <mxGeometry x="370" y="482.5" width="120" height="60" as="geometry" />
        </mxCell>
        <mxCell id="Jf-K_vuhxzvKwSq_fTRj-24" value="Почати писати" style="whiteSpace=wrap;html=1;rounded=1;glass=0;strokeWidth=1;shadow=0;labelBackgroundColor=none;fillColor=#F2CC8F;strokeColor=#E07A5F;fontColor=#393C56;" vertex="1" parent="WIyWlLk6GJQsqaUBKTNV-1">
          <mxGeometry x="700" y="482.5" width="120" height="60" as="geometry" />
        </mxCell>
      </root>
    </mxGraphModel>
  </diagram>
</mxfile>
